<?xml version="1.0" standalone="no"?>
<!DOCTYPE svg PUBLIC "-//W3C//DTD SVG 20010904//EN"
 "http://www.w3.org/TR/2001/REC-SVG-20010904/DTD/svg10.dtd">
<svg version="1.0" xmlns="http://www.w3.org/2000/svg"
 width="512.000000pt" height="512.000000pt" viewBox="0 0 512.000000 512.000000"
 preserveAspectRatio="xMidYMid meet">
<metadata>
Created by potrace 1.14, written by Peter Selinger 2001-2017
</metadata>
<g transform="translate(0.000000,512.000000) scale(0.100000,-0.100000)"
fill="#000000" stroke="none">
<path d="M3017 4174 c-1 -1 -74 -4 -162 -8 -88 -4 -180 -9 -205 -11 -111 -11
-317 -34 -360 -40 -14 -2 -47 -7 -75 -10 -62 -8 -454 -74 -475 -80 -8 -3 -33
-7 -55 -11 -68 -10 -216 -51 -300 -81 l-80 -30 -1 -44 c-2 -98 -27 -139 -87
-139 -15 0 -40 -9 -55 -19 -15 -11 -45 -22 -67 -25 -22 -4 -51 -8 -65 -11 -19
-4 -34 3 -62 30 -20 19 -49 40 -65 46 -24 9 -30 7 -44 -10 -11 -13 -29 -21
-47 -21 -16 0 -46 -7 -67 -16 -21 -8 -43 -13 -51 -10 -7 3 -76 -36 -151 -85
-106 -70 -163 -116 -244 -199 -135 -137 -251 -310 -221 -329 5 -3 12 -34 15
-68 3 -34 11 -71 16 -81 6 -11 8 -22 5 -25 -23 -23 -36 -298 -15 -305 19 -6
12 -22 -14 -34 -30 -13 -36 -35 -19 -69 16 -32 12 -376 -5 -407 -16 -29 -14
-64 5 -91 23 -32 22 -181 -1 -236 -12 -30 -15 -55 -10 -97 6 -48 4 -63 -14
-91 -21 -35 -20 -50 5 -40 19 7 18 -39 -2 -78 -19 -38 -13 -59 15 -52 26 7 27
-17 7 -93 -15 -58 -16 -218 -1 -233 6 -5 28 -11 50 -14 22 -2 67 -11 100 -20
33 -8 85 -18 115 -22 30 -3 71 -8 90 -10 19 -3 80 -7 135 -10 55 -3 132 -7
170 -10 39 -2 129 -7 200 -11 72 -3 138 -8 148 -10 114 -21 802 -21 1152 1
116 7 272 18 295 20 14 2 43 4 65 4 25 1 35 4 27 9 -7 5 -135 7 -285 4 -150
-2 -319 -4 -377 -5 -97 0 -389 10 -470 18 -19 2 -91 6 -160 10 -69 3 -143 8
-165 10 -22 2 -87 7 -145 10 -58 3 -125 8 -150 10 -37 3 -168 12 -292 20 -15
1 -31 4 -34 8 -9 8 27 9 756 12 316 1 627 5 690 8 167 10 383 16 735 22 614
10 905 17 1185 30 218 10 345 17 349 21 4 4 -20 5 -249 6 -138 1 -589 -11
-670 -18 -25 -2 -151 -6 -280 -9 -464 -10 -627 -15 -785 -23 -176 -8 -1197
-10 -1421 -2 l-142 5 4 45 c2 25 6 115 9 200 2 85 4 160 5 166 0 7 7 15 16 18
14 5 16 1 11 -34 -4 -30 -2 -40 9 -40 8 0 15 11 15 25 1 14 3 30 4 35 1 6 3
16 4 23 1 10 14 13 47 11 66 -3 76 -20 18 -30 -16 -3 -36 -12 -44 -20 -12 -12
-10 -14 18 -14 40 0 50 -20 32 -68 -7 -20 -13 -91 -15 -164 l-2 -129 31 3 c35
3 30 -25 40 268 3 85 5 156 6 158 0 1 9 2 20 2 17 0 20 -7 20 -47 0 -56 19
-97 21 -48 4 89 9 95 67 95 l47 -1 -30 -13 c-39 -17 -65 -43 -65 -64 0 -13 6
-10 23 10 21 26 35 32 66 29 12 -1 11 -4 -1 -18 -21 -24 -26 -363 -6 -364 7 0
22 -2 33 -4 11 -2 23 1 26 7 4 7 8 82 9 167 2 135 5 217 9 269 3 32 26 2 31
-39 6 -53 23 -54 28 -2 2 21 9 43 15 50 7 7 41 13 77 15 l65 3 3 -33 c3 -32 3
-33 -20 -19 -13 7 -29 13 -35 12 -7 -2 -20 -3 -28 -4 -23 -2 -55 -42 -50 -65
2 -12 4 -23 4 -26 1 -2 12 12 26 33 40 58 80 46 49 -15 -14 -26 -18 -64 -19
-185 l-2 -151 31 -4 c17 -1 43 -2 57 0 l25 3 -3 232 c-2 128 -5 237 -8 244 -2
6 -14 10 -27 8 -13 -2 -66 -6 -118 -10 -122 -8 -160 -12 -300 -30 -205 -26
-233 -28 -340 -30 -58 -1 -144 -7 -191 -15 -72 -11 -151 -8 -138 4 4 4 206 35
268 42 19 2 48 5 65 8 68 10 306 39 416 50 176 18 253 26 310 31 36 3 81 8
100 10 19 2 78 7 130 10 52 3 115 7 140 10 59 6 162 13 280 20 52 3 124 7 160
10 58 4 176 10 395 20 39 2 169 6 290 10 121 4 261 8 310 11 50 2 392 6 761
10 l671 7 5 -39 c2 -21 -2 -50 -9 -66 -17 -33 -19 -130 -3 -188 6 -24 32 -82
56 -131 41 -78 45 -93 42 -145 l-3 -59 -48 -3 c-32 -2 -47 -7 -44 -15 4 -12
60 -13 124 -2 43 8 53 29 48 106 -2 35 -4 118 -5 183 -2 110 -4 121 -26 143
-28 27 -79 31 -88 6 -4 -9 -2 -41 5 -71 16 -79 -3 -88 -28 -12 -21 66 -22 136
-2 185 6 17 13 58 14 92 3 54 0 64 -21 84 -21 19 -24 32 -24 88 0 64 -12 103
-26 89 -4 -4 -6 -22 -6 -40 1 -155 1 -156 22 -163 11 -3 20 -9 20 -13 0 -4
-170 -7 -378 -8 -207 0 -458 -1 -557 -3 -99 -2 -304 -3 -455 -3 -151 1 -291 0
-310 -2 -40 -4 -149 -13 -265 -21 -44 -3 -102 -8 -130 -10 -27 -2 -108 -7
-180 -10 -71 -3 -161 -8 -200 -10 -38 -2 -142 -7 -230 -10 -88 -3 -194 -7
-235 -10 -41 -3 -136 -7 -210 -10 -138 -5 -193 -9 -440 -30 -36 -3 -90 -8
-120 -10 -121 -10 -266 -33 -540 -85 -91 -17 -169 -32 -175 -33 -9 -2 -24 82
-20 113 1 9 14 16 33 18 31 3 32 5 33 50 5 237 8 262 35 262 11 0 14 -24 15
-127 0 -138 7 -175 26 -151 19 23 29 87 28 185 -1 57 -6 97 -14 107 -10 12 -9
16 6 24 10 6 30 8 45 5 23 -4 26 -8 18 -24 -6 -10 -11 -80 -13 -156 -2 -115 0
-140 13 -150 13 -11 12 -13 -7 -19 -12 -3 -24 -12 -27 -20 -6 -16 10 -28 19
-14 4 6 15 8 26 5 17 -6 19 -1 20 57 0 35 2 74 4 88 8 57 6 217 -4 241 -12 32
-7 39 32 39 27 0 29 -2 22 -27 -12 -45 -20 -153 -17 -226 5 -110 22 -67 22 56
0 62 5 119 10 127 12 18 12 8 13 -170 0 -69 3 -127 6 -130 4 -3 12 -17 18 -33
7 -15 17 -27 23 -27 17 0 11 40 -11 71 l-20 29 23 -2 c23 -3 23 -2 22 92 -1
52 -2 125 -4 161 -3 76 5 109 26 109 10 0 14 -13 14 -49 0 -30 5 -51 12 -53 9
-3 13 -38 13 -116 0 -61 4 -114 7 -117 17 -18 25 11 21 76 -4 57 -2 70 9 67 9
-3 13 -28 15 -84 1 -46 6 -80 12 -82 21 -7 0 -22 -30 -22 -39 0 -34 -21 7 -32
34 -9 56 -3 53 14 -3 26 1 38 15 38 12 0 14 27 11 160 -2 88 -6 164 -8 168 -7
11 11 52 23 52 5 0 10 -14 10 -31 0 -19 4 -29 12 -27 7 3 12 20 12 38 1 30 5
35 33 41 29 6 53 -4 53 -22 0 -4 -16 -16 -35 -28 -39 -23 -45 -45 -16 -61 15
-7 20 -7 23 4 3 13 6 13 22 0 17 -12 18 -17 7 -41 -13 -29 -14 -178 0 -204 4
-9 21 -16 36 -17 32 -1 29 -23 33 223 2 109 -5 165 -22 176 -4 3 -58 0 -119
-7 -237 -27 -402 -66 -519 -123 -49 -24 -62 -21 -35 9 31 35 219 96 380 124
58 10 91 18 230 51 77 18 208 41 290 50 83 10 159 19 170 21 10 2 35 6 55 8
19 3 85 12 145 21 61 8 128 18 150 21 22 2 51 7 65 9 14 3 52 7 85 10 33 2 76
7 95 9 65 9 252 22 435 31 61 3 148 7 195 10 47 2 148 7 225 10 77 3 183 8
235 10 102 5 414 12 930 19 280 5 333 3 380 -11 57 -17 173 -19 213 -4 20 8
18 10 -18 19 -45 12 -60 13 -260 14 -77 0 -304 1 -505 3 -671 6 -855 6 -875 2
-22 -5 -168 -16 -290 -22 -44 -2 -134 -7 -200 -10 -66 -3 -163 -8 -215 -10
-252 -10 -407 -18 -422 -20 -20 -4 -30 8 -33 39 -4 35 -4 36 -20 30 -9 -4 -13
-18 -12 -41 2 -34 0 -36 -33 -38 -19 -1 -71 -5 -116 -10 l-81 -7 -2 62 c-1 40
2 59 9 55 5 -3 10 -1 11 4 2 23 1 122 -2 249 l-3 132 -25 0 c-14 -1 -66 -11
-116 -23 -84 -21 -90 -24 -89 -47 1 -14 3 -51 5 -83 3 -76 19 -59 22 24 l3 64
49 12 c28 6 65 12 83 12 31 1 33 -1 30 -26 -2 -19 -8 -27 -18 -24 -43 10 -74
3 -97 -23 -34 -40 -27 -92 16 -115 15 -9 18 -6 19 19 1 48 12 71 40 81 43 16
56 -7 62 -117 3 -53 3 -98 1 -100 -2 -2 -23 -4 -45 -4 -55 0 -69 -10 -60 -43
5 -23 12 -27 40 -27 34 0 34 -1 34 -45 0 -25 -3 -46 -7 -46 -5 -1 -21 -3 -38
-5 -16 -2 -65 -10 -108 -17 -43 -7 -80 -10 -83 -6 -2 4 -2 21 0 36 13 81 21
201 21 306 0 93 -3 120 -15 128 -20 13 -79 6 -170 -20 -44 -12 -103 -21 -144
-21 -53 0 -81 -6 -124 -26 -55 -26 -149 -47 -157 -34 -5 8 267 98 455 149 309
84 529 140 625 160 96 19 131 24 255 36 89 8 146 16 202 30 52 13 50 13 -57 9
-108 -4 -159 -8 -260 -21 -27 -3 -60 -7 -73 -9 -137 -16 -424 -80 -672 -150
-361 -102 -592 -186 -768 -281 l-84 -45 16 30 c8 16 12 32 9 36 -4 3 4 18 18
33 25 27 17 25 -40 -14 -45 -31 -51 -29 -40 10 12 39 14 123 4 167 -8 35 25
114 51 124 18 7 18 1 -2 -30 -37 -55 -14 -204 31 -204 22 0 32 54 34 193 2
134 14 197 32 165 6 -11 6 -33 -2 -63 -8 -32 -8 -49 -1 -58 6 -7 13 -51 15
-98 1 -46 6 -90 11 -97 5 -8 2 -20 -8 -31 -19 -21 -21 -54 -3 -49 6 3 19 18
27 34 11 23 14 69 12 224 l-2 195 28 17 c27 16 28 16 45 -14 19 -33 23 -83 7
-93 -6 -4 -10 5 -10 19 0 14 -4 26 -9 26 -14 0 -24 -80 -18 -132 4 -24 6 -59
6 -79 1 -34 4 -37 41 -47 33 -8 47 -6 88 13 74 34 77 49 75 301 l-2 211 59 16
c33 10 61 17 62 17 2 0 3 -17 4 -37 0 -21 4 -64 9 -95 7 -55 7 -58 -13 -58
-29 0 -37 -35 -27 -119 4 -36 8 -86 9 -110 1 -39 -2 -44 -22 -47 -13 -2 -33
-10 -45 -16 -19 -10 -19 -13 -5 -16 9 -2 26 2 37 7 11 6 28 11 39 11 27 0 47
27 62 83 10 36 11 92 5 230 -4 100 -7 192 -7 205 2 23 -7 28 -24 13 -5 -5 -40
-21 -78 -36 -39 -15 -87 -38 -107 -51 l-38 -23 6 33 c6 38 -15 62 -24 27 -3
-12 -13 -21 -24 -21 -24 0 -35 -25 -20 -44 17 -20 -3 -30 -30 -15 -19 10 -25
8 -39 -11 -9 -13 -23 -21 -31 -18 -8 3 9 26 48 65 136 135 297 228 404 235 27
1 45 8 53 20 16 27 30 22 72 -22 43 -45 64 -51 118 -33 46 15 106 17 107 3 0
-5 1 -35 1 -65 0 -75 0 -72 -22 -78 -26 -7 -26 -37 0 -37 20 0 21 -6 20 -112
-2 -193 -3 -186 23 -181 l23 5 1 249 c0 137 2 251 4 252 2 2 37 18 77 36 55
25 81 32 106 27 l32 -6 3 -90 2 -91 -24 5 c-31 5 -52 -8 -44 -28 5 -12 14 -14
37 -9 l31 6 -2 -74 c-3 -97 -21 -225 -34 -238 -5 -5 -37 -12 -69 -16 -65 -7
-76 -11 -76 -27 0 -9 17 -8 90 7 8 2 28 4 43 4 23 1 31 8 47 44 24 55 31 125
32 330 l1 167 24 0 c12 0 23 3 23 8 0 13 -78 32 -133 32 l-53 0 1 55 c0 30 4
57 7 60 6 6 93 32 138 41 14 3 39 9 55 14 33 10 239 55 295 65 19 3 46 8 60
10 14 3 35 7 47 10 24 4 233 35 273 40 71 9 222 25 275 29 33 3 89 8 125 11
142 12 207 15 505 20 335 5 405 -2 405 -37 0 -27 15 -53 56 -94 19 -20 34 -45
35 -57 2 -65 30 -152 96 -302 22 -49 48 -113 57 -142 14 -43 22 -53 46 -58 44
-10 76 -61 87 -137 l5 -38 -164 0 c-164 0 -188 -5 -188 -37 0 -9 39 -11 180
-6 l180 6 1 -34 c1 -19 3 -50 4 -69 10 -119 9 -184 -3 -188 -8 -2 -6 -11 8
-29 11 -15 34 -72 51 -127 17 -56 34 -104 38 -107 3 -4 49 -9 101 -12 52 -2
102 -8 111 -11 13 -6 16 -2 12 18 -5 23 -2 26 26 26 20 0 31 -5 32 -15 1 -8 2
-21 3 -27 1 -8 16 -13 41 -13 24 0 40 -5 40 -12 0 -18 11 -25 52 -29 96 -9
111 -14 118 -43 3 -15 21 -43 39 -62 55 -57 59 -70 51 -188 -6 -91 -4 -109 9
-120 17 -14 22 -51 7 -51 -14 0 -11 -192 4 -227 13 -30 15 -31 71 -31 64 1 71
-6 73 -78 1 -21 11 -39 31 -57 33 -30 38 -47 15 -47 -19 0 -19 -24 0 -40 14
-12 14 -15 0 -30 -22 -24 -22 -395 0 -424 14 -18 15 -18 24 6 6 17 22 28 53
37 86 25 178 63 179 74 1 15 -2 124 -6 247 -7 204 -16 483 -20 645 -9 299 -20
341 -102 403 -84 62 -224 128 -333 156 -109 28 -138 33 -245 41 -43 3 -83 9
-88 12 -19 12 -75 20 -87 13 -6 -4 -12 -27 -12 -52 0 -24 -3 -50 -8 -57 -11
-18 -160 -18 -171 1 -9 13 -38 106 -45 143 -2 11 -8 43 -13 70 -16 80 -29 180
-47 370 -11 119 -13 123 -79 165 -54 35 -55 35 -86 135 -107 344 -129 404
-159 425 -44 31 -54 55 -36 82 26 39 9 47 -119 54 -116 6 -413 12 -418 8z
m-2466 -808 c1 -17 0 -35 -1 -41 -2 -5 -2 -39 -1 -75 1 -36 2 -78 2 -95 1 -16
1 -65 0 -107 l-1 -78 -40 0 c-24 0 -42 5 -45 13 -2 6 -6 58 -9 115 l-6 102 40
28 c49 34 51 46 5 26 -19 -7 -36 -14 -37 -14 -2 0 -4 21 -5 47 -1 25 -7 50
-14 53 -6 5 2 15 23 27 65 40 88 39 89 -1z m569 -520 c0 -2 2 -11 5 -18 4 -10
-4 -14 -30 -15 -44 -1 -65 -18 -65 -54 0 -26 22 -59 39 -59 5 0 11 14 15 30 5
25 10 30 34 30 l29 0 2 -81 c2 -89 -13 -129 -49 -129 -14 0 -20 -7 -20 -24 0
-26 -18 -49 -52 -67 -16 -9 -18 -13 -7 -19 8 -5 23 -1 40 11 42 29 61 25 57
-13 l-3 -32 -186 -37 c-302 -60 -581 -140 -736 -210 -45 -20 -63 -24 -63 -14
0 7 7 15 15 19 18 6 9 36 -11 36 -16 0 -16 2 -8 24 3 9 17 16 30 16 l25 0 -7
115 c-4 78 -3 115 5 115 21 0 32 -43 30 -116 -1 -41 0 -77 4 -80 10 -11 26 32
25 72 0 21 1 69 2 106 2 44 -2 73 -10 83 -11 13 -10 18 6 29 10 8 22 12 25 10
12 -7 18 -66 20 -172 1 -56 4 -104 8 -106 14 -9 36 21 38 49 6 112 4 210 -6
213 -6 2 -11 16 -11 30 0 23 9 32 55 56 31 16 60 37 66 47 5 11 16 19 25 19
13 0 14 -18 9 -122 -4 -86 -3 -118 4 -107 10 16 18 71 20 135 1 16 7 39 15 49
12 16 13 -4 13 -148 -1 -166 -1 -168 -24 -173 -34 -9 -28 -20 17 -32 l40 -10
14 47 c10 33 13 94 12 222 l-3 177 59 12 c32 7 61 10 64 7 11 -11 -7 -44 -36
-65 -30 -22 -30 -22 -30 -2 0 34 -18 22 -22 -15 -4 -39 3 -49 43 -58 l26 -7
-5 -96 c-4 -89 -3 -97 12 -91 10 4 21 7 25 7 4 0 8 6 8 13 1 36 14 220 19 272
5 58 17 86 30 72 4 -3 7 -37 8 -76 1 -53 4 -67 13 -59 7 5 15 18 18 29 8 24
25 15 25 -12 0 -11 6 -19 13 -17 6 2 14 -2 17 -7 3 -6 -12 -11 -32 -13 -31 -3
-38 -8 -47 -34 -6 -17 -11 -56 -11 -87 0 -48 2 -53 14 -41 13 13 23 64 25 123
1 11 9 17 25 17 23 0 24 -3 23 -68 -1 -85 4 -94 43 -80 28 9 30 13 31 66 2
114 16 282 24 290 12 12 165 29 165 18z m-230 -36 c8 -15 8 -20 -2 -21 -31 -2
-62 -10 -75 -20 -10 -9 -13 -5 -13 21 0 19 3 31 6 28 3 -3 17 -2 32 2 39 12
40 12 52 -10z m-380 -50 c0 -5 -10 -10 -22 -10 -19 0 -20 2 -8 10 19 13 30 13
30 0z m4108 -68 c28 -36 9 -76 -26 -54 -7 5 -15 25 -19 46 -5 33 -4 36 13 30
11 -4 25 -14 32 -22z m107 -45 c16 -10 20 -24 22 -74 1 -35 -1 -63 -5 -63 -4
0 -17 8 -29 18 -17 13 -24 32 -28 75 -7 61 0 69 40 44z m144 -61 c12 -15 22
-126 11 -126 -19 0 -43 44 -45 82 -4 59 9 75 34 44z m111 -131 c0 -33 -1 -34
-25 -23 -22 10 -25 17 -25 62 l1 51 24 -28 c16 -18 25 -40 25 -62z m-216 -57
c3 3 6 -34 6 -82 l0 -87 -37 3 -38 3 -2 75 c-3 96 -1 101 36 90 16 -4 32 -6
35 -2z m-4089 -226 c-2 -9 -4 -20 -4 -24 -1 -5 -6 -8 -12 -8 -6 0 -20 -11 -31
-25 -28 -36 -38 -31 -38 19 0 47 2 49 61 53 21 2 26 -2 24 -15z m4193 -205 l3
-162 -25 25 c-24 24 -25 31 -31 190 l-5 165 27 -28 c28 -27 28 -28 31 -190z
m-119 193 c16 0 18 -13 18 -125 l0 -125 -39 0 -38 0 1 123 c1 67 4 126 7 130
2 5 11 6 19 3 8 -3 22 -6 32 -6z m262 -66 c7 -40 1 -58 -17 -43 -18 15 -19 82
-1 77 6 -3 15 -18 18 -34z m-69 -112 c-1 -42 -4 -86 -6 -97 -3 -11 -5 -24 -5
-28 -1 -5 -5 -5 -11 -2 -10 6 -13 202 -3 218 15 24 27 -20 25 -91z m-4774 -70
c3 -80 0 -101 -12 -111 -14 -11 -16 -11 -17 5 0 11 -3 57 -6 103 -5 79 1 100
27 101 3 0 6 -44 8 -98z m402 -464 c-3 -221 -1 -263 11 -251 7 7 10 59 10 141
-1 116 1 132 17 144 10 7 22 19 26 27 7 10 3 12 -13 6 -11 -3 -21 -3 -22 2 0
4 -2 16 -4 26 -3 14 4 17 40 17 43 0 43 0 36 -28 -5 -16 -16 -43 -25 -60 -14
-27 -16 -56 -12 -187 4 -119 3 -155 -7 -155 -6 0 -103 -3 -214 -7 -170 -5
-203 -4 -204 8 0 8 -2 30 -3 49 -2 19 -7 104 -11 188 l-7 154 28 -4 29 -3 0
-170 c0 -142 2 -171 15 -176 24 -10 29 17 29 182 1 121 4 158 14 162 31 12 35
-9 34 -172 -1 -134 2 -165 14 -171 33 -19 38 4 43 170 3 91 5 172 5 181 1 11
11 16 33 17 41 1 53 -7 33 -21 -8 -7 -18 -29 -22 -50 -5 -33 -3 -37 16 -37 15
0 21 -6 22 -22 0 -13 1 -70 2 -128 2 -105 2 -105 27 -105 28 0 26 -25 20 248
-3 128 1 146 33 147 5 0 8 -55 7 -122z m-406 -175 c6 -132 5 -143 -11 -143
-16 0 -18 15 -21 158 -3 137 -1 155 11 142 11 -11 16 -54 21 -157z"/>
<path d="M977 2803 c-3 -7 -2 -30 2 -63 0 -5 5 -10 10 -10 10 0 19 50 13 68
-4 13 -19 16 -25 5z"/>
<path d="M979 2663 c-1 -16 -3 -49 -5 -75 -3 -39 -1 -46 11 -42 8 4 15 9 16
13 0 3 1 26 2 51 2 41 4 45 27 45 15 0 26 7 28 18 3 14 -4 17 -37 17 -38 0
-41 -2 -42 -27z"/>
<path d="M399 2637 c-22 -15 -33 -30 -31 -43 1 -10 2 -52 2 -91 -1 -60 2 -72
14 -67 12 5 14 -3 10 -39 -3 -26 -1 -48 5 -52 20 -12 11 -24 -29 -45 -43 -22
-56 -46 -17 -34 12 4 30 7 39 6 33 -2 50 72 56 236 3 97 1 152 -5 152 -6 0
-25 -10 -44 -23z"/>
<path d="M616 2601 c-9 -14 -14 -136 -6 -156 10 -27 17 -8 23 65 2 30 7 62 11
71 7 17 -19 35 -28 20z"/>
<path d="M790 2416 c0 -19 4 -22 30 -18 17 2 30 8 30 13 0 5 1 12 3 17 1 4
-13 8 -30 9 -28 1 -33 -2 -33 -21z"/>
<path d="M884 2408 c3 -13 5 -27 5 -31 1 -5 6 -5 11 -2 16 10 12 55 -5 55 -10
0 -14 -7 -11 -22z"/>
<path d="M637 2393 c-11 -3 -16 -10 -13 -20 3 -8 6 -16 6 -17 0 -1 14 -1 30 2
21 3 30 10 30 23 0 19 -14 22 -53 12z"/>
<path d="M261 2251 c-11 -7 -10 -11 7 -20 16 -9 21 -7 25 9 5 21 -8 26 -32 11z"/>
<path d="M205 2224 c-17 -12 -18 -16 -5 -24 17 -11 19 -9 25 19 5 25 5 24 -20
5z"/>
<path d="M435 1311 c0 -49 3 -92 7 -96 10 -11 21 79 14 126 -11 77 -22 61 -21
-30z"/>
<path d="M3165 4100 c-3 -5 4 -14 17 -19 24 -9 63 0 63 15 0 13 -72 17 -80 4z"/>
<path d="M3297 4103 c-31 -8 -12 -28 26 -29 30 -1 37 3 37 17 0 19 -21 23 -63
12z"/>
<path d="M3403 4095 c-17 -12 -16 -14 9 -20 32 -8 59 -4 58 10 -1 17 -48 24
-67 10z"/>
<path d="M2925 4089 c-10 -15 -4 -18 35 -21 26 -2 35 1 38 15 3 14 -4 17 -32
17 -19 0 -38 -5 -41 -11z"/>
<path d="M3050 4086 c0 -18 20 -25 53 -19 41 8 33 29 -13 31 -29 2 -40 -1 -40
-12z"/>
<path d="M2712 4081 c-47 -8 -44 -25 6 -29 32 -2 42 0 42 12 0 20 -9 23 -48
17z"/>
<path d="M2808 4084 c-16 -15 5 -31 40 -29 50 2 51 29 2 33 -20 2 -39 0 -42
-4z"/>
<path d="M2554 4058 c-10 -16 8 -28 42 -28 28 0 34 4 34 20 0 17 -6 20 -36 18
-19 -1 -38 -6 -40 -10z"/>
<path d="M2440 4041 c-8 -3 -16 -12 -18 -19 -2 -10 9 -12 40 -10 30 2 43 7 43
18 0 16 -38 22 -65 11z"/>
<path d="M2312 4018 c3 -7 21 -14 41 -16 28 -2 37 1 37 12 0 12 -11 16 -41 16
-28 0 -39 -4 -37 -12z"/>
<path d="M2217 4012 c-32 -7 -11 -27 31 -29 31 -1 39 2 35 13 -3 8 -8 14 -12
15 -3 0 -13 2 -21 3 -8 1 -23 1 -33 -2z"/>
<path d="M2122 4003 c-12 -2 -27 -13 -32 -24 -10 -17 -8 -19 26 -14 21 2 42 9
47 14 10 10 1 32 -11 30 -4 -1 -17 -4 -30 -6z"/>
<path d="M3433 3995 c-3 -9 2 -21 10 -28 14 -10 22 -73 18 -134 -1 -8 -17 -13
-44 -13 l-43 0 4 -41 c4 -34 8 -40 26 -38 58 4 65 0 64 -33 -1 -18 2 -60 5
-93 5 -45 3 -72 -10 -106 -9 -26 -13 -55 -9 -64 8 -21 15 -16 21 15 2 12 8 27
13 34 5 6 8 27 7 46 -2 19 -6 121 -10 225 -4 105 -8 195 -8 200 -1 6 4 9 11 8
6 -2 12 6 12 17 0 16 -7 20 -30 20 -18 0 -33 -6 -37 -15z m32 -205 c6 0 2 -5
-8 -11 -20 -12 -47 -6 -47 11 0 5 10 8 23 6 12 -3 27 -5 32 -6z"/>
<path d="M2715 3943 c15 -120 13 -169 -5 -158 -5 3 -19 1 -33 -4 -17 -7 -24
-17 -24 -35 0 -23 3 -26 38 -26 l38 0 0 -137 c0 -179 -1 -173 12 -173 7 0 9
82 7 268 l-3 267 23 3 c12 2 22 10 22 17 0 11 -8 13 -30 9 -23 -5 -30 -3 -30
10 0 9 -5 16 -11 16 -7 0 -9 -18 -4 -57z m10 -183 c3 -5 -3 -10 -14 -10 -12 0
-21 5 -21 10 0 6 6 10 14 10 8 0 18 -4 21 -10z"/>
<path d="M1983 3983 c-14 -3 -23 -12 -23 -22 0 -16 4 -17 40 -8 59 16 43 42
-17 30z"/>
<path d="M3077 3983 c-9 -2 -15 -8 -12 -12 4 -8 8 -120 6 -163 -1 -11 -9 -18
-21 -18 -29 0 -27 -38 3 -42 20 -3 22 -9 23 -58 6 -217 6 -259 0 -268 -3 -5
-52 -9 -108 -9 -57 0 -121 -4 -143 -8 l-40 -9 35 -6 c67 -12 615 1 629 16 17
17 -34 24 -167 25 l-152 1 -1 56 c0 32 -2 89 -4 127 -14 271 -15 344 -5 350 5
3 10 10 10 16 0 9 -21 10 -53 2z"/>
<path d="M1868 3963 c-10 -2 -18 -13 -18 -24 0 -16 5 -19 20 -15 11 3 29 9 40
12 28 8 26 34 -2 33 -13 -1 -31 -3 -40 -6z"/>
<path d="M1733 3943 c-19 -7 -15 -33 5 -33 33 0 62 12 62 26 0 14 -41 18 -67
7z"/>
<path d="M1630 3910 c-14 -3 -26 -14 -28 -24 -3 -15 0 -18 19 -13 13 4 32 7
42 7 10 0 17 8 17 18 0 20 -10 22 -50 12z"/>
<path d="M2067 3905 c4 -13 14 -15 47 -10 68 12 72 22 7 24 -52 1 -60 -1 -54
-14z"/>
<path d="M2351 3840 c1 -44 0 -82 -2 -84 -2 -2 -15 -6 -29 -8 -14 -1 -28 -12
-32 -23 -6 -19 -6 -19 -13 3 -6 18 -15 22 -46 22 -34 0 -39 -3 -39 -22 0 -13
-6 -30 -13 -39 -12 -16 -17 -212 -6 -223 4 -4 116 19 129 26 3 2 6 39 7 83 1
44 2 88 2 98 1 16 40 26 42 10 5 -40 8 -84 10 -176 2 -84 -1 -111 -11 -117
-13 -8 -42 -13 -155 -26 -58 -6 -105 -22 -105 -36 0 -6 19 -8 48 -4 26 3 72 8
102 12 83 10 93 11 117 13 18 1 22 9 29 64 4 34 6 149 5 256 -1 175 0 195 16
206 21 16 11 29 -30 39 l-28 7 2 -81z m-1 -115 c0 -8 -4 -15 -9 -15 -5 0 -11
7 -15 15 -3 9 0 15 9 15 8 0 15 -7 15 -15z m-110 1 c0 -11 -19 -15 -25 -6 -3
5 1 10 9 10 9 0 16 -2 16 -4z m31 -63 c0 -10 2 -50 4 -89 l4 -71 -37 1 -37 1
-1 86 0 85 33 2 c26 2 33 -1 34 -15z"/>
<path d="M1523 3890 c-13 -5 -23 -16 -23 -24 0 -11 9 -13 38 -9 45 7 46 8 39
28 -7 17 -21 18 -54 5z"/>
<path d="M1863 3875 c-24 -7 -43 -11 -43 -9 0 3 -9 0 -20 -6 -11 -6 -17 -16
-14 -25 4 -8 10 -13 14 -10 4 3 25 7 46 11 45 7 104 32 104 45 0 13 -37 10
-87 -6z"/>
<path d="M1999 3863 c13 -45 14 -163 2 -164 -6 -1 -15 -3 -21 -4 -5 -1 -17 -3
-26 -4 -11 -1 -14 -9 -12 -28 3 -24 8 -28 33 -28 l30 0 3 -152 3 -151 -53 -11
c-29 -5 -72 -12 -95 -15 -67 -8 -96 -18 -82 -26 6 -5 22 -6 33 -4 12 2 55 7
97 12 42 6 88 17 103 27 23 15 26 24 27 74 0 31 3 147 5 258 5 212 1 243 -36
243 -16 0 -17 -4 -11 -27z m11 -194 c0 -5 -7 -9 -15 -9 -15 0 -20 12 -9 23 8
8 24 -1 24 -14z"/>
<path d="M1396 3847 c-14 -10 -16 -16 -7 -21 18 -12 83 3 78 17 -5 18 -49 20
-71 4z"/>
<path d="M1702 3828 c-16 -16 -15 -28 3 -28 13 0 15 -13 13 -72 l-3 -73 -38 0
-37 0 5 -60 c3 -33 8 -83 11 -111 5 -47 3 -52 -18 -57 -29 -8 -31 -5 -34 44
-2 33 2 42 16 46 10 3 17 12 15 21 -2 10 -4 25 -4 35 -1 9 -9 17 -18 17 -15 0
-15 1 2 13 24 18 8 26 -32 15 -35 -9 -36 -30 -4 -56 14 -12 14 -15 -7 -30 -20
-16 -23 -25 -20 -75 3 -63 6 -65 92 -50 l38 6 -6 84 c-5 83 -5 84 17 81 21 -3
22 -8 23 -98 0 -52 -4 -104 -10 -115 -17 -35 -16 -66 2 -63 27 5 33 55 35 288
2 124 6 231 10 238 11 16 -34 17 -51 0z m18 -214 c0 -2 -12 -4 -27 -4 -21 0
-24 3 -14 9 13 8 41 5 41 -5z"/>
<path d="M1572 3806 c-37 -8 -50 -14 -43 -22 14 -13 133 5 128 20 -4 13 -25
14 -85 2z"/>
<path d="M3158 3780 c-4 -27 -2 -30 23 -30 26 0 39 15 39 46 0 9 -11 14 -29
14 -24 0 -29 -5 -33 -30z"/>
<path d="M3260 3778 c0 -25 3 -28 34 -28 29 0 33 3 32 27 -1 23 -6 27 -33 28
-30 1 -33 -1 -33 -27z"/>
<path d="M2790 3759 c0 -26 3 -29 31 -29 27 0 30 3 27 26 -2 21 -9 28 -30 30
-25 2 -28 -1 -28 -27z"/>
<path d="M2902 3768 c2 -15 -2 -23 -12 -23 -12 0 -15 -17 -15 -95 l0 -95 73
-3 72 -3 0 96 c0 74 -3 95 -14 95 -8 0 -17 11 -20 25 -6 22 -12 25 -47 25 -36
0 -40 -2 -37 -22z m84 -117 l2 -61 -44 0 c-41 0 -44 2 -45 28 -1 15 -3 41 -5
59 -3 28 -1 32 24 36 63 9 67 5 68 -62z"/>
<path d="M2439 3763 c0 -5 -2 -15 -4 -25 -2 -12 6 -17 31 -20 32 -4 34 -2 34
24 0 24 -4 28 -30 28 -16 0 -30 -3 -31 -7z"/>
<path d="M2540 3747 c0 -18 6 -22 30 -22 25 -1 30 3 30 22 0 19 -5 23 -30 23
-24 0 -30 -4 -30 -23z"/>
<path d="M2098 3733 c-12 -3 -18 -14 -18 -34 0 -23 4 -29 23 -29 33 0 49 15
45 41 -3 24 -18 31 -50 22z"/>
<path d="M1878 3683 c-12 -3 -18 -14 -18 -32 0 -25 3 -27 30 -23 35 5 39 19 8
25 l-23 4 22 8 c13 4 20 11 17 16 -5 9 -8 10 -36 2z"/>
<path d="M843 3664 c-4 -11 -13 -13 -33 -9 -22 5 -30 2 -34 -13 -4 -11 -16
-22 -26 -25 -20 -5 -29 -37 -11 -37 6 0 25 9 43 19 18 11 50 23 70 26 38 7 58
33 36 47 -20 12 -38 9 -45 -8z"/>
<path d="M1783 3673 c-24 -5 -27 -13 -17 -49 5 -19 9 -21 39 -11 25 7 32 15
30 28 -5 24 -14 39 -23 38 -4 -1 -17 -4 -29 -6z"/>
<path d="M885 3600 c-36 -8 -73 -30 -79 -47 -8 -19 19 -16 64 7 75 38 72 48
68 -217 -2 -175 0 -237 9 -240 24 -8 31 112 21 382 -4 119 -4 120 -29 121 -13
1 -37 -2 -54 -6z"/>
<path d="M650 3585 c-37 -13 -46 -30 -30 -55 8 -13 12 -11 30 8 11 12 27 22
34 22 12 0 26 20 26 36 0 7 -22 3 -60 -11z"/>
<path d="M1487 3593 c-4 -3 -7 -19 -7 -34 0 -24 3 -27 32 -26 22 1 34 8 36 19
2 13 -2 16 -17 13 -12 -2 -21 0 -21 6 0 5 7 9 15 9 8 0 15 5 15 10 0 11 -43
14 -53 3z"/>
<path d="M1293 3549 c-19 -19 -4 -46 23 -41 25 5 28 10 18 36 -7 19 -25 21
-41 5z"/>
<path d="M1220 3509 c0 -28 14 -37 35 -21 13 9 19 42 8 43 -4 0 -16 2 -25 4
-14 2 -18 -4 -18 -26z"/>
<path d="M555 3520 c-4 -6 -1 -17 5 -26 15 -18 42 0 33 22 -6 16 -29 19 -38 4z"/>
<path d="M1047 3484 c-9 -10 4 -34 19 -34 8 0 14 9 14 20 0 19 -19 27 -33 14z"/>
<path d="M990 3445 c0 -10 7 -15 18 -13 21 4 19 22 -2 26 -10 2 -16 -3 -16
-13z"/>
<path d="M896 3432 c-3 -5 1 -18 9 -28 14 -18 14 -18 15 3 0 23 -15 39 -24 25z"/>
<path d="M1059 3423 c-13 -3 -15 -16 -12 -70 1 -37 7 -71 13 -77 11 -11 13 5
10 61 -2 39 8 73 21 73 5 0 9 -29 9 -65 0 -51 3 -65 15 -65 12 0 15 15 15 75
l0 75 -27 -1 c-16 -1 -35 -3 -44 -6z"/>
<path d="M851 3406 c-16 -20 -11 -35 10 -27 11 4 14 12 10 24 -6 17 -8 17 -20
3z"/>
<path d="M2451 3387 c-6 -6 -11 -16 -11 -22 0 -11 30 -11 180 -1 36 3 73 5 83
5 10 1 17 7 15 13 -6 17 -250 22 -267 5z"/>
<path d="M3804 3387 c-9 -25 0 -90 14 -95 8 -2 12 11 12 47 0 49 -15 76 -26
48z"/>
<path d="M790 3370 c0 -11 4 -20 9 -20 11 0 22 26 14 34 -12 12 -23 5 -23 -14z"/>
<path d="M3274 3364 c3 -9 6 -18 6 -20 0 -2 9 -4 21 -4 12 0 23 -8 26 -20 3
-11 12 -20 20 -20 10 0 13 11 11 40 l-2 40 -44 0 c-36 0 -43 -3 -38 -16z"/>
<path d="M685 3360 c3 -5 -3 -10 -14 -10 -14 0 -19 -5 -15 -15 4 -9 0 -15 -9
-15 -8 0 -17 -7 -21 -15 -11 -30 47 -17 77 16 34 39 34 49 1 49 -14 0 -23 -4
-19 -10z"/>
<path d="M2562 3304 c0 -19 6 -35 14 -38 9 -3 14 2 14 14 0 23 4 24 30 10 14
-7 19 -5 23 10 6 24 -8 34 -49 35 -30 1 -32 -1 -32 -31z"/>
<path d="M1659 3276 c-2 -2 -22 -6 -44 -9 -97 -14 -125 -20 -125 -28 0 -13 60
-15 115 -4 11 2 35 4 53 4 25 1 32 5 32 21 0 17 -19 27 -31 16z"/>
<path d="M2997 3264 c-1 -1 -60 -4 -132 -8 -182 -9 -269 -18 -392 -41 -10 -2
-22 -4 -28 -5 -5 0 -1 -6 9 -12 17 -10 76 -11 186 -4 19 1 55 8 79 15 31 9 72
11 135 6 142 -12 216 -11 225 3 5 9 20 10 54 3 55 -10 261 -8 295 3 12 4 22
14 22 22 0 11 -20 14 -97 15 -54 0 -156 1 -226 2 -71 1 -129 1 -130 1z"/>
<path d="M1893 3253 c-6 -2 -8 -14 -6 -26 4 -19 10 -23 34 -19 23 3 28 9 27
28 -2 22 -21 28 -55 17z"/>
<path d="M2268 3200 l-23 -19 45 -2 c60 -2 83 1 94 12 14 13 4 19 -47 24 -35
4 -51 0 -69 -15z"/>
<path d="M1066 3155 c-45 -12 -76 -35 -76 -57 0 -11 2 -11 55 12 26 11 55 20
65 20 11 0 24 9 30 20 13 24 0 25 -74 5z"/>
<path d="M1317 3153 c-26 -7 -18 -47 11 -51 19 -3 22 1 22 27 0 17 -3 30 -7
30 -5 -1 -16 -3 -26 -6z"/>
<path d="M3308 3155 c-2 -2 -40 -5 -86 -7 -45 -2 -82 -6 -82 -9 0 -13 52 -19
153 -18 117 1 157 -10 158 -43 0 -13 0 -95 0 -183 -1 -128 2 -165 13 -180 17
-22 16 -31 20 289 l1 110 -30 18 c-26 14 -138 32 -147 23z"/>
<path d="M3600 3152 c-36 -2 -69 -7 -74 -13 -6 -6 -6 -9 0 -10 5 0 18 -2 29
-5 11 -2 70 -4 132 -4 l112 0 11 -39 c6 -22 12 -110 13 -195 2 -103 6 -159 14
-167 9 -9 12 -8 11 7 -1 10 3 62 7 114 11 123 9 234 -5 260 -26 48 -82 60
-250 52z"/>
<path d="M2845 3140 c-48 -5 -49 -6 -26 -19 15 -8 61 -14 127 -15 94 -1 106
-3 126 -24 23 -22 23 -26 20 -217 -3 -184 5 -237 23 -167 11 38 6 382 -6 403
-19 36 -133 53 -264 39z"/>
<path d="M2501 3113 c-95 -20 -74 -39 33 -28 116 12 152 14 164 6 7 -4 11 -68
13 -181 2 -161 12 -240 28 -225 3 4 6 96 6 206 1 182 -1 201 -18 217 -25 23
-132 25 -226 5z"/>
<path d="M856 3084 c-57 -15 -75 -29 -59 -45 12 -12 94 19 108 41 11 17 4 18
-49 4z"/>
<path d="M2138 3078 c-82 -14 -75 -31 12 -31 8 0 31 3 50 7 105 18 126 18 139
3 9 -11 14 -74 16 -218 3 -111 7 -204 10 -207 16 -16 20 29 21 206 0 109 -1
203 -4 210 -14 39 -116 52 -244 30z"/>
<path d="M3645 3072 c-33 -5 -65 -24 -65 -38 0 -10 6 -11 23 -5 12 5 44 8 70
6 61 -3 88 -26 86 -74 -1 -20 3 -47 8 -61 5 -14 8 -56 7 -94 -2 -72 12 -142
17 -81 3 42 0 190 -6 250 -3 36 -10 54 -27 67 -27 20 -84 35 -113 30z"/>
<path d="M1936 3053 c-1 -1 -34 -3 -74 -5 -40 -1 -78 -6 -84 -9 -7 -5 -8 -23
-3 -56 4 -26 7 -59 7 -73 -1 -14 2 -32 5 -40 11 -26 19 51 11 99 -5 24 -6 46
-3 49 6 6 195 8 205 2 5 -3 10 -94 12 -202 2 -109 7 -200 10 -203 14 -15 21
49 19 175 -2 74 -4 164 -5 199 l-1 64 -48 1 c-27 1 -49 0 -51 -1z"/>
<path d="M2913 3052 c-29 -4 -83 -58 -83 -83 0 -10 4 -19 10 -19 11 0 50 40
50 51 0 15 59 20 99 9 27 -7 46 -20 55 -38 9 -15 15 -21 16 -14 1 55 -76 105
-147 94z"/>
<path d="M3274 3049 c-17 -5 -37 -15 -43 -23 -11 -13 -5 -14 42 -9 62 6 93 -6
107 -43 14 -35 32 -30 28 8 -5 53 -71 86 -134 67z"/>
<path d="M853 3033 c-7 -2 -13 -13 -13 -24 0 -14 7 -19 26 -19 20 0 25 4 22
22 -3 23 -15 30 -35 21z"/>
<path d="M2541 3023 c-38 -19 -65 -70 -51 -93 6 -10 17 -5 46 24 44 44 73 48
116 16 33 -24 43 -22 33 10 -15 48 -90 70 -144 43z"/>
<path d="M1557 2997 l-78 -21 3 -73 c4 -87 23 -95 23 -10 1 71 6 75 109 84 75
6 75 6 86 -21 5 -15 10 -36 10 -47 0 -18 -2 -18 -22 -5 -24 15 -53 20 -100 18
-33 -2 -66 -45 -51 -65 6 -6 13 -25 17 -40 9 -37 31 -29 32 12 1 43 14 53 59
49 48 -4 75 -37 50 -62 -9 -9 -13 -20 -10 -26 14 -22 22 -111 11 -118 -11 -7
-17 -8 -73 -11 -32 -1 -33 -2 -31 -42 2 -51 15 -57 85 -35 l55 18 -6 99 c-3
66 -1 99 6 99 7 0 9 31 6 90 -6 137 -26 149 -181 107z"/>
<path d="M2159 2987 c-37 -25 -49 -69 -29 -107 9 -18 8 -20 -15 -20 -19 0 -25
-5 -25 -21 0 -16 5 -20 27 -17 20 2 29 11 37 38 28 91 100 126 160 79 22 -18
26 -18 26 -4 0 9 -13 30 -29 46 -38 38 -101 40 -152 6z"/>
<path d="M1849 2930 l-30 -30 22 -31 22 -31 14 30 c15 32 50 52 88 52 14 0 25
3 25 6 0 16 -38 33 -73 34 -30 0 -45 -7 -68 -30z"/>
<path d="M3152 2900 c-2 -21 2 -30 13 -30 10 0 15 10 15 30 0 18 -5 30 -13 30
-7 0 -14 -13 -15 -30z"/>
<path d="M435 2911 c-27 -11 -62 -51 -45 -51 21 0 81 41 74 51 -3 5 -6 9 -7 8
-1 0 -11 -4 -22 -8z"/>
<path d="M493 2903 c-18 -6 -16 -33 1 -33 8 0 24 9 37 20 l24 19 -25 0 c-14 0
-31 -3 -37 -6z"/>
<path d="M2792 2878 c4 -46 28 -49 28 -4 0 26 -4 36 -16 36 -11 0 -14 -8 -12
-32z"/>
<path d="M3399 2895 c-1 -6 -2 -30 -3 -54 l-1 -44 -99 -1 -100 -1 -1 -27 c-1
-16 2 -29 7 -29 4 -1 18 -2 30 -3 12 0 22 -5 24 -11 1 -5 5 -21 8 -35 4 -20
12 -25 35 -26 22 -1 32 4 36 17 8 23 31 25 39 4 10 -28 25 -15 39 32 16 55 15
159 -2 176 -6 6 -12 7 -12 2z"/>
<path d="M2445 2869 c-4 -6 -4 -13 -1 -16 8 -8 36 5 36 17 0 13 -27 13 -35 -1z"/>
<path d="M1789 2798 c-1 -13 -3 -34 -5 -48 -3 -29 4 -60 14 -60 4 0 12 21 19
48 6 26 14 55 18 65 6 13 2 17 -19 17 -20 0 -26 -5 -27 -22z"/>
<path d="M2838 2780 c-1 -5 -1 -32 0 -60 l4 -50 93 0 c122 0 124 1 114 53 -4
23 -8 43 -8 45 -1 1 -1 7 -1 12 0 13 -197 13 -202 0z"/>
<path d="M2610 2772 c-116 -3 -122 -6 -118 -50 l3 -37 65 3 c36 2 77 -1 91 -7
18 -6 26 -6 26 2 1 7 7 27 14 44 8 21 10 36 4 40 -6 5 -44 7 -85 5z"/>
<path d="M1484 2748 c-11 -33 -13 -174 -3 -189 6 -10 9 -5 10 16 1 17 3 35 4
40 2 6 3 26 4 46 1 22 10 47 25 64 28 33 26 45 -9 45 -16 0 -26 -8 -31 -22z"/>
<path d="M2160 2684 l0 -45 44 6 c33 5 51 3 68 -9 12 -9 30 -16 40 -16 13 0
17 -9 16 -40 0 -39 6 -59 17 -48 3 2 2 48 -2 101 l-6 97 -89 0 -88 0 0 -46z"/>
<path d="M1229 2663 c-2 -26 -2 -66 1 -88 7 -55 20 -22 20 51 0 51 1 54 26 54
36 0 25 24 -13 28 -30 3 -31 2 -34 -45z"/>
<path d="M1899 2698 c-21 -8 -39 -45 -36 -77 1 -19 7 -21 54 -20 48 2 54 5 68
32 8 17 15 41 15 54 0 21 -4 23 -40 21 -23 -2 -50 -6 -61 -10z"/>
<path d="M3429 2665 c-8 -49 -6 -76 4 -72 16 5 21 57 8 70 -6 6 -12 7 -12 2z"/>
<path d="M3800 2624 c0 -24 4 -34 13 -32 19 7 21 54 3 61 -13 5 -16 -1 -16
-29z"/>
<path d="M3048 2620 c2 -16 8 -30 13 -30 5 0 9 14 9 30 0 18 -5 30 -13 30 -9
0 -12 -10 -9 -30z"/>
<path d="M2708 2604 c-5 -41 6 -53 22 -24 8 14 8 26 0 40 -15 27 -17 26 -22
-16z"/>
<path d="M1997 2573 c-12 -12 -7 -53 6 -53 9 0 12 10 9 30 -5 32 -5 33 -15 23z"/>
<path d="M1241 2497 c-25 -31 31 -37 69 -7 l25 20 -41 0 c-23 0 -47 -6 -53
-13z"/>
<path d="M3650 2463 c-14 -2 -41 -6 -60 -9 -58 -10 -8 -21 84 -18 76 3 145 -9
147 -24 0 -4 2 -99 4 -212 2 -135 7 -206 14 -208 13 -4 14 8 16 238 1 96 -2
183 -7 192 -13 28 -124 51 -198 41z"/>
<path d="M3972 2452 c-78 -6 -32 -22 64 -22 135 0 130 9 129 -224 0 -174 4
-220 20 -204 6 6 18 266 17 367 0 67 -25 86 -115 86 -39 1 -91 -1 -115 -3z"/>
<path d="M4329 2449 c-43 -11 57 -32 123 -25 48 4 98 19 98 29 0 5 -199 2
-221 -4z"/>
<path d="M2855 2440 c-82 -8 -27 -28 80 -28 84 -1 91 -3 113 -27 16 -19 22
-40 23 -78 1 -29 3 -72 5 -97 2 -25 5 -82 7 -127 2 -53 8 -87 16 -95 19 -18 7
407 -12 426 -28 28 -115 38 -232 26z"/>
<path d="M3177 2443 c-19 -19 4 -23 118 -21 169 4 160 16 158 -210 -1 -97 2
-186 7 -197 5 -11 9 -18 10 -15 6 23 11 374 6 395 -10 41 -57 55 -184 55 -60
0 -112 -3 -115 -7z"/>
<path d="M2505 2420 c-43 -11 -24 -14 90 -14 l100 -1 12 -35 c7 -22 12 -106
12 -219 0 -105 4 -188 10 -194 17 -17 23 76 16 255 -8 215 -6 213 -128 214
-45 1 -95 -2 -112 -6z"/>
<path d="M2130 2390 c-62 -11 -1 -22 84 -15 72 6 77 5 100 -20 30 -32 32 -45
35 -196 4 -205 9 -245 28 -225 9 9 10 162 3 310 -5 103 -7 110 -31 128 -28 21
-149 31 -219 18z"/>
<path d="M1820 2373 c-19 -3 -39 -8 -44 -13 -14 -14 41 -23 92 -15 98 14 110
11 129 -32 12 -28 15 -67 14 -153 -1 -63 -4 -128 -5 -145 -2 -16 -4 -36 -5
-44 -1 -8 -4 -11 -8 -7 -4 4 -8 49 -9 99 -2 114 0 105 -26 109 -21 3 -21 4 -5
20 10 9 24 15 32 12 18 -7 13 28 -10 62 -45 69 -165 58 -165 -14 l0 -26 28 27
c38 37 59 35 33 -2 -25 -34 -27 -67 -6 -75 17 -6 9 -36 -9 -36 -9 0 -12 -33
-12 -122 l1 -123 -37 -3 c-40 -3 -50 -15 -22 -26 28 -11 83 5 89 25 5 16 16
19 76 19 66 0 70 1 80 27 6 16 8 80 5 158 -2 71 -5 158 -5 193 -1 62 -1 63
-36 78 -32 13 -97 16 -175 7z"/>
<path d="M3643 2368 c-39 -10 -87 -73 -74 -96 6 -10 4 -20 -3 -27 -8 -8 -11
-50 -10 -126 1 -63 2 -116 3 -119 0 -3 35 -6 76 -8 62 -2 75 0 75 13 0 8 -3
14 -7 14 -35 -6 -40 2 -42 56 0 29 3 65 9 80 8 21 16 25 50 25 25 0 40 -5 41
-12 4 -38 6 -77 8 -110 2 -54 17 -47 20 10 2 26 5 65 6 87 5 60 -12 151 -32
180 -26 36 -68 48 -120 33z"/>
<path d="M4013 2373 c-29 -6 -77 -87 -69 -118 4 -14 1 -25 -6 -27 -8 -3 -13
-42 -15 -116 l-4 -112 109 0 109 0 -2 143 c-1 114 -5 150 -20 180 -16 33 -51
60 -73 56 -4 -1 -17 -4 -29 -6z m34 -45 c5 -7 10 -37 11 -66 1 -29 5 -68 10
-85 5 -18 10 -61 11 -96 l3 -64 -33 7 c-18 3 -35 9 -38 12 -3 3 -4 31 -3 64 1
32 -3 71 -9 87 -13 32 -12 109 2 135 11 21 33 23 46 6z"/>
<path d="M3245 2360 c-32 -13 -64 -53 -71 -90 -6 -29 -5 -33 12 -28 10 3 26 7
34 9 10 3 16 -8 20 -38 4 -24 3 -48 -1 -54 -10 -17 -39 -3 -39 20 0 17 -47 51
-72 51 -17 0 -7 -29 16 -48 22 -17 25 -27 28 -112 l4 -94 77 -1 c43 -1 80 2
83 7 3 4 7 37 9 73 4 63 16 95 36 95 5 0 9 -33 9 -72 0 -84 14 -120 25 -68 11
52 9 251 -4 297 -6 24 -20 47 -31 53 -22 12 -107 12 -135 0z"/>
<path d="M2904 2349 c-45 -13 -76 -51 -81 -103 -4 -34 -10 -46 -22 -46 -13 0
-14 -2 -2 -9 11 -7 16 -35 18 -103 2 -51 5 -98 7 -103 2 -7 44 -11 107 -10
l104 0 3 73 c3 68 2 72 -18 69 -11 -2 -43 -20 -70 -40 -27 -20 -52 -37 -54
-37 -3 0 -5 41 -3 91 1 78 4 92 21 101 18 10 75 13 106 6 13 -3 15 5 11 46 -4
44 -72 79 -127 65z"/>
<path d="M1495 2336 c-38 -11 -40 -14 -43 -56 -7 -96 23 -119 32 -25 2 28 5
53 5 57 1 3 38 6 83 5 l82 -2 7 -32 6 -31 -33 15 c-27 14 -37 14 -64 3 -37
-15 -70 -55 -70 -84 1 -19 4 -17 28 12 34 41 42 41 38 -3 -3 -26 0 -35 11 -35
11 0 13 -5 7 -17 -9 -21 -13 -137 -7 -203 l5 -45 59 1 59 1 6 139 c3 76 7 160
8 186 3 73 -9 104 -46 117 -40 14 -122 13 -173 -3z"/>
<path d="M2501 2332 c-19 -10 -38 -28 -42 -40 -9 -24 5 -39 18 -20 5 8 10 -8
14 -42 3 -33 1 -58 -5 -62 -9 -6 -8 -98 3 -215 1 -7 11 -10 26 -7 20 3 113 11
173 13 19 1 15 307 -5 339 -31 49 -122 66 -182 34z"/>
<path d="M2166 2309 c-14 -11 -26 -28 -26 -37 0 -12 3 -13 12 -4 20 20 26 13
18 -21 -4 -18 -3 -44 2 -57 6 -16 5 -26 -3 -31 -7 -4 -13 -48 -16 -117 l-4
-110 78 5 c43 2 83 6 90 8 15 5 9 191 -7 245 -7 23 -7 36 0 38 25 9 -1 75 -37
91 -37 17 -78 13 -107 -10z"/>
<path d="M1230 2312 c-19 -2 -38 -7 -42 -10 -12 -12 -11 -193 1 -205 11 -11
13 2 15 131 l0 52 56 1 c75 2 83 0 98 -19 24 -32 15 -41 -30 -29 -38 9 -43 8
-60 -13 -24 -30 -33 -69 -19 -83 8 -8 14 -2 22 21 6 18 15 32 19 32 13 0 21
-66 20 -163 -2 -163 -6 -149 43 -145 l42 4 0 207 c0 174 -2 209 -15 217 -14 9
-62 10 -150 2z"/>
<path d="M1754 2278 c1 -47 19 -68 24 -29 4 29 -6 71 -17 71 -4 0 -8 -19 -7
-42z"/>
<path d="M4355 2286 c-18 -13 -20 -27 -20 -139 0 -69 3 -128 6 -131 3 -3 32
-8 65 -11 32 -3 70 -8 83 -10 l23 -4 -6 87 c-8 108 -8 102 0 134 9 41 -41 88
-93 88 -22 0 -48 -6 -58 -14z"/>
<path d="M975 2271 c-6 -11 23 -15 71 -12 13 1 24 -7 32 -24 16 -35 16 -34
-19 -33 -16 1 -37 -5 -45 -13 -17 -18 -22 -95 -6 -111 7 -7 12 -8 13 -2 3 41
16 74 28 74 11 0 21 -72 25 -185 2 -44 4 -84 5 -88 0 -4 19 -7 41 -5 l40 2 -6
130 c-3 72 -7 158 -8 192 -1 33 -5 65 -9 70 -8 13 -154 18 -162 5z"/>
<path d="M950 2190 c-1 -14 -4 -37 -6 -52 -2 -19 2 -28 12 -28 16 0 18 51 4
85 -8 18 -9 18 -10 -5z"/>
<path d="M2082 2147 c2 -47 14 -57 21 -19 3 15 8 34 12 42 4 11 -1 16 -15 16
-18 0 -20 -6 -18 -39z"/>
<path d="M2420 2178 c-1 -7 -3 -30 -6 -50 -5 -30 -2 -38 10 -38 12 0 16 10 16
34 0 19 3 41 6 50 4 11 1 16 -10 16 -9 0 -16 -6 -16 -12z"/>
<path d="M1757 2163 c-10 -17 -17 -129 -8 -142 13 -21 20 0 26 78 4 44 2 71
-4 71 -5 0 -12 -3 -14 -7z"/>
<path d="M1463 2114 c-14 -28 -16 -188 -3 -229 11 -34 13 -35 61 -35 55 0 58
14 6 25 -17 4 -35 12 -38 17 -4 5 -4 54 -2 108 5 103 -5 152 -24 114z"/>
<path d="M1226 2092 c-8 -13 11 -35 23 -28 16 10 14 36 -3 36 -8 0 -17 -4 -20
-8z"/>
<path d="M947 2057 c-7 -19 0 -174 9 -188 15 -25 22 18 17 100 -5 84 -15 117
-26 88z"/>
<path d="M754 2053 c-11 -4 -9 -175 2 -203 10 -26 25 30 24 85 -3 80 -1 85 20
85 12 0 17 5 14 14 -5 14 -41 25 -60 19z"/>
<path d="M1186 2019 c-14 -70 -1 -161 18 -130 9 14 5 150 -4 156 -4 3 -10 -9
-14 -26z"/>
<path d="M4158 1930 c-5 -35 17 -54 33 -29 13 21 6 53 -12 57 -12 2 -18 -6
-21 -28z"/>
<path d="M3810 1919 c0 -27 2 -30 15 -19 8 7 15 21 15 31 0 11 -7 19 -15 19
-10 0 -15 -10 -15 -31z"/>
<path d="M4480 1926 c0 -15 6 -26 13 -26 17 0 15 42 -1 48 -7 2 -12 -7 -12
-22z"/>
<path d="M3046 1932 c-3 -5 -3 -17 -1 -28 2 -10 4 -22 4 -26 1 -5 7 -8 14 -8
9 0 12 11 9 35 -4 33 -15 45 -26 27z"/>
<path d="M3420 1910 c0 -22 4 -28 15 -24 8 4 15 17 15 30 0 15 -6 24 -15 24
-10 0 -15 -10 -15 -30z"/>
<path d="M2320 1900 c0 -11 0 -23 -1 -27 0 -4 4 -9 10 -11 6 -2 11 10 11 27 0
17 -4 31 -10 31 -5 0 -10 -9 -10 -20z"/>
<path d="M2674 1894 c2 -32 26 -46 26 -15 0 12 0 24 1 29 0 4 -6 8 -14 10 -10
2 -13 -6 -13 -24z"/>
<path d="M2070 1889 c0 -18 4 -20 23 -14 12 3 32 9 45 12 38 9 24 23 -23 23
-39 0 -45 -3 -45 -21z"/>
<path d="M1986 1868 c-9 -29 -3 -45 16 -40 12 3 17 10 14 19 -3 8 -6 19 -6 24
0 14 -20 11 -24 -3z"/>
<path d="M1650 1861 c0 -21 13 -41 26 -41 15 0 17 10 8 34 -7 17 -34 22 -34 7z"/>
<path d="M1190 1850 c-5 -3 -5 -11 -1 -19 7 -10 14 -10 40 3 17 9 31 19 31 21
0 7 -58 2 -70 -5z"/>
<path d="M1350 1830 c0 -16 4 -30 9 -30 12 0 19 21 13 43 -7 28 -22 20 -22
-13z"/>
<path d="M983 1832 c-21 -21 2 -33 38 -20 41 14 44 25 8 30 -19 3 -36 -1 -46
-10z"/>
<path d="M1087 1843 c-3 -3 -2 -15 3 -28 5 -13 6 -26 3 -29 -4 -3 1 -6 10 -6
12 0 17 9 17 29 0 26 -20 47 -33 34z"/>
<path d="M760 1808 c0 -7 5 -20 10 -28 8 -13 13 -13 39 3 38 22 41 22 41 -8 0
-16 6 -25 15 -25 10 0 15 11 15 35 l0 35 -60 0 c-41 0 -60 -4 -60 -12z"/>
<path d="M3965 1750 c-44 -5 -47 -6 -25 -14 14 -5 65 -8 113 -7 68 2 95 -2
113 -14 l25 -16 -6 -214 c-4 -131 -2 -216 4 -219 20 -13 28 430 9 455 -25 31
-109 42 -233 29z"/>
<path d="M4287 1754 c-16 -17 11 -24 86 -24 133 0 130 7 124 -224 -4 -180 1
-254 15 -230 4 5 10 105 13 222 l6 212 -25 25 c-23 23 -32 25 -119 25 -51 0
-97 -3 -100 -6z"/>
<path d="M3197 1737 c-43 -16 6 -27 120 -27 133 0 142 -6 144 -83 1 -29 3 -72
4 -97 8 -183 8 -232 -1 -238 -5 -4 -9 -14 -8 -22 0 -8 2 -24 2 -34 3 -36 21
-3 29 54 10 62 9 88 -2 280 -9 172 -5 167 -154 172 -62 2 -122 -1 -134 -5z"/>
<path d="M3593 1742 c-13 -2 -23 -7 -23 -12 0 -15 53 -21 145 -14 89 6 93 6
105 -16 8 -14 13 -93 16 -220 2 -109 8 -208 13 -221 11 -28 12 -13 13 251 0
129 -3 173 -16 203 l-15 38 -108 -3 c-59 -1 -118 -4 -130 -6z"/>
<path d="M256 1717 c-11 -8 -16 -22 -14 -36 l3 -23 28 22 c44 35 29 70 -17 37z"/>
<path d="M2478 1712 c-66 -18 -43 -26 87 -32 160 -7 151 8 148 -242 -3 -226 0
-256 22 -238 11 9 13 49 9 218 -3 114 -7 217 -9 228 -8 39 -52 57 -152 63 -51
3 -98 5 -105 3z"/>
<path d="M2835 1710 c-39 -10 -20 -12 120 -14 l110 -1 12 -38 c7 -22 14 -112
16 -220 2 -111 8 -191 15 -203 9 -14 11 35 12 208 0 217 -1 228 -21 246 -11
11 -37 22 -57 26 -49 8 -169 6 -207 -4z"/>
<path d="M2115 1700 c-56 -10 -8 -20 95 -19 64 1 106 -3 115 -11 29 -24 36
-79 35 -262 -1 -101 -2 -194 -1 -208 2 -24 2 -24 16 -6 21 28 10 453 -12 479
-31 33 -148 47 -248 27z"/>
<path d="M183 1693 c-15 -6 -17 -43 -3 -43 12 0 24 25 18 38 -1 5 -9 7 -15 5z"/>
<path d="M1763 1693 c-15 -5 -18 -119 -4 -128 14 -8 31 28 31 67 0 33 0 33 53
37 58 4 112 5 142 2 19 -1 20 -8 20 -98 0 -68 -4 -97 -12 -100 -10 -4 -13 12
-13 59 0 88 -15 114 -64 110 -39 -2 -117 -50 -122 -74 -2 -7 -6 -23 -10 -35
-8 -28 12 -31 21 -3 8 24 61 70 81 70 12 0 11 -5 -5 -26 -29 -37 -43 -120 -40
-247 1 -62 -1 -119 -5 -126 -4 -7 -5 -15 -2 -18 7 -7 184 -8 191 -1 7 6 8 66
6 316 l-2 203 -127 -2 c-70 -1 -133 -4 -139 -6z"/>
<path d="M1454 1668 c-3 -4 -2 -19 2 -33 6 -24 8 -25 23 -10 20 18 185 22 196
5 4 -6 9 -57 12 -115 5 -91 4 -105 -10 -105 -11 0 -15 9 -14 28 2 51 -14 117
-35 139 -36 38 -103 27 -121 -19 -8 -22 3 -23 29 -3 10 8 27 15 36 15 17 0 17
-2 1 -35 -13 -28 -14 -39 -4 -61 8 -19 9 -30 0 -40 -11 -14 -14 -55 -9 -164 2
-36 0 -75 -4 -87 -7 -22 -5 -23 63 -23 l70 0 8 38 c10 47 10 230 0 347 -12
145 3 130 -126 130 -62 1 -115 -3 -117 -7z"/>
<path d="M3613 1650 c-17 -10 -34 -24 -39 -31 -17 -28 -23 -312 -8 -359 16
-46 36 -52 28 -8 -10 51 -10 52 7 55 11 3 21 -10 33 -42 10 -25 21 -45 24 -45
4 0 7 47 8 104 1 115 13 157 50 176 27 15 36 10 41 -23 17 -104 19 -144 10
-188 -7 -36 -7 -53 1 -61 7 -7 14 -10 16 -7 28 27 25 328 -4 403 -12 32 -24
38 -85 42 -37 2 -60 -3 -82 -16z"/>
<path d="M3981 1636 c-42 -23 -69 -96 -36 -96 8 0 15 -7 15 -15 0 -8 -7 -15
-15 -15 -13 0 -15 -19 -13 -132 l3 -133 33 -2 32 -1 1 91 c1 141 12 177 55
177 l25 0 -6 -130 -6 -130 40 0 c22 0 41 5 43 13 2 6 4 62 3 122 0 87 -3 109
-14 107 -10 -2 -12 3 -6 20 19 62 18 67 -18 103 -28 28 -43 35 -73 35 -22 -1
-50 -7 -63 -14z"/>
<path d="M4349 1636 c11 -13 11 -26 2 -60 -6 -25 -11 -85 -11 -134 0 -73 -3
-92 -18 -105 -10 -10 -22 -17 -25 -17 -4 0 -7 45 -7 99 0 71 4 101 13 104 9 3
9 9 0 28 -6 13 -15 34 -18 47 -4 12 -11 20 -16 16 -10 -6 -2 -354 8 -364 2 -3
10 -5 16 -5 7 0 13 -10 15 -22 3 -21 9 -23 58 -23 l54 0 0 54 c0 39 4 55 15
60 13 5 16 27 14 141 -2 185 -3 189 -64 193 -43 3 -47 1 -36 -12z"/>
<path d="M2179 1622 c-18 -9 -42 -33 -53 -52 l-21 -35 29 18 c34 23 38 20 26
-22 -7 -25 -6 -33 6 -38 18 -6 19 -39 1 -46 -10 -4 -12 -32 -9 -121 2 -64 0
-116 -5 -115 -21 4 -43 -2 -43 -11 0 -6 43 -10 110 -10 l110 0 1 38 c0 20 3
79 5 131 5 79 2 106 -17 164 -12 37 -29 77 -38 87 -22 27 -63 31 -102 12z"/>
<path d="M2516 1619 c-17 -9 -37 -27 -45 -41 -13 -23 -12 -27 8 -47 20 -20 22
-29 15 -69 -4 -26 -8 -91 -9 -145 -2 -60 -8 -103 -15 -113 -12 -13 0 -14 101
-12 l114 3 1 148 c1 81 -2 147 -7 147 -5 0 -9 7 -9 15 0 8 5 15 10 15 6 0 10
12 10 28 0 75 -94 114 -174 71z"/>
<path d="M2913 1630 c-40 -9 -60 -25 -79 -61 -19 -37 -18 -46 6 -52 25 -6 26
-27 2 -27 -16 0 -18 -10 -17 -106 1 -58 -1 -123 -5 -145 l-7 -38 123 0 124 0
1 32 c1 17 3 58 5 90 l4 58 -42 -3 c-37 -3 -42 -6 -41 -25 3 -66 1 -63 29 -52
29 10 40 7 29 -10 -3 -6 -17 -11 -30 -11 -15 0 -26 -7 -30 -20 -10 -31 -25
-24 -26 13 -5 116 -5 261 -1 282 8 43 39 31 69 -27 23 -44 28 -49 31 -30 4 27
-14 86 -32 101 -28 23 -82 38 -113 31z"/>
<path d="M3245 1626 c-44 -19 -90 -99 -62 -109 7 -2 7 -16 -1 -48 -7 -24 -10
-64 -8 -89 2 -25 5 -68 5 -96 l1 -51 73 -9 c80 -10 127 -8 127 7 0 5 -7 9 -15
9 -12 0 -14 16 -10 98 2 53 4 107 4 119 1 15 7 21 21 20 16 -1 20 -9 20 -37 1
-88 10 -184 18 -192 14 -14 20 237 8 299 -16 79 -99 115 -181 79z"/>
<path d="M2427 1483 c-5 -8 -10 -85 -8 -130 1 -13 7 -23 14 -23 10 0 13 20 13
74 -1 70 -8 98 -19 79z"/>
<path d="M1751 1405 c2 -73 13 -98 24 -52 14 58 9 127 -11 127 -12 0 -15 -13
-13 -75z"/>
<path d="M2048 1462 c-3 -11 -4 -41 -3 -68 1 -27 3 -68 3 -92 1 -26 6 -41 12
-37 12 8 13 215 1 215 -5 0 -11 -8 -13 -18z"/>
<path d="M1457 1437 c-2 -7 -4 -49 -4 -95 1 -58 4 -79 11 -72 14 14 21 180 8
180 -5 0 -12 -6 -15 -13z"/>
<path d="M1179 1440 c-1 -3 -3 -33 -5 -67 -3 -58 6 -87 21 -63 11 17 8 111 -4
123 -6 6 -11 9 -12 7z"/>
<path d="M756 1421 c-10 -16 -5 -241 5 -241 16 0 22 52 16 147 -7 97 -10 113
-21 94z"/>
<path d="M949 1363 c-1 -27 -3 -70 -4 -98 -3 -58 0 -66 20 -58 22 8 22 203 0
203 -11 0 -15 -12 -16 -47z"/>
<path d="M4083 1122 c-13 -2 -23 -7 -23 -13 0 -15 41 -20 145 -15 55 2 158 5
229 5 101 1 127 4 118 13 -9 9 -74 12 -230 13 -119 0 -227 -1 -239 -3z"/>
<path d="M2643 993 c9 -2 25 -2 35 0 9 3 1 5 -18 5 -19 0 -27 -2 -17 -5z"/>
</g>
</svg>
